<svg width="18" height="10" viewBox="0 0 18 10" fill="none" xmlns="http://www.w3.org/2000/svg">
<path d="M4.69614 6.23333H4.69565C4.2923 6.23333 3.94946 6.08938 3.66173 5.79832C3.37396 5.50722 3.23092 5.15957 3.23043 4.74988C3.22994 4.34039 3.37288 3.99317 3.66155 3.70265C3.95046 3.41188 4.29351 3.26766 4.6959 3.26667C5.09789 3.26568 5.44096 3.40972 5.73036 3.70247C6.01979 3.99525 6.16234 4.34253 6.16087 4.74964C6.1594 5.15733 6.01658 5.50532 5.72994 5.79875C5.44401 6.09146 5.10132 6.23531 4.69614 6.23333ZM8.6789 2.4255L8.70787 2.475H8.76522H15.6104L17.8594 4.75L14.4688 8.17981L12.9735 7.04533L12.913 6.99948L12.8526 7.04533L11.346 8.18834L9.74289 7.04362L9.71682 7.025H9.68478H8.76522H8.7079L8.67893 7.07445C8.26994 7.77262 7.71769 8.33471 7.02097 8.76161C6.32688 9.18691 5.5526 9.4 4.69565 9.4C3.4179 9.4 2.33485 8.9488 1.44068 8.04428C0.546471 7.13972 0.1 6.04359 0.1 4.75C0.1 3.45641 0.546471 2.36028 1.44068 1.45572C2.33485 0.551204 3.4179 0.1 4.69565 0.1C5.55206 0.1 6.32636 0.313088 7.021 0.738408C7.71822 1.16531 8.27045 1.72738 8.6789 2.4255ZM11.2505 6.43447L11.3102 6.47714L11.3688 6.43303L12.9118 5.27191L14.2405 6.31309L14.3106 6.36805L14.3733 6.30468L15.8407 4.8203L15.9102 4.75L15.8407 4.6797L15.0581 3.88803L15.0287 3.85833H14.987H7.80429C7.60978 3.18482 7.23651 2.62413 6.68614 2.17853C6.11377 1.71511 5.44889 1.48333 4.69565 1.48333C3.80767 1.48333 3.04522 1.80437 2.41367 2.44324C1.78215 3.08207 1.46522 3.8528 1.46522 4.75C1.46522 5.6472 1.78215 6.41793 2.41367 7.05676C3.04522 7.69563 3.80767 8.01667 4.69565 8.01667C5.44838 8.01667 6.11324 7.78488 6.68611 7.3215C7.23698 6.87591 7.61029 6.31521 7.80434 5.64167H10.1418L11.2505 6.43447Z" fill="#404040" stroke="#F7F7F7" stroke-width="0.2"/>
</svg>
