<svg width="16" height="14" viewBox="0 0 16 14" fill="none" xmlns="http://www.w3.org/2000/svg">
<path d="M13.1381 7.84776L13.3046 7.67778H13.0667H3.90952V6.32222H13.0667H13.3046L13.1381 6.15224L12.0245 5.01545L12.9536 4.03308L15.86 7L12.9536 9.96692L12.0245 8.98455L13.1381 7.84776ZM9.24286 12.4444V9.43333H10.5667V12.4444C10.5667 12.8462 10.4277 13.1872 10.1476 13.4731C9.86764 13.7589 9.5345 13.9 9.14286 13.9H1.52381C1.13217 13.9 0.799032 13.7589 0.519055 13.4731C0.239016 13.1872 0.1 12.8462 0.1 12.4444V1.55556C0.1 1.15385 0.239016 0.812795 0.519055 0.526922C0.799032 0.241113 1.13217 0.1 1.52381 0.1H9.14286C9.5345 0.1 9.86764 0.241113 10.1476 0.526923C10.4277 0.812795 10.5667 1.15385 10.5667 1.55556V4.56667H9.24286V1.55556V1.45556H9.14286H1.52381H1.42381V1.55556V12.4444V12.5444H1.52381H9.14286H9.24286V12.4444Z" fill="#E50C00" stroke="white" stroke-width="0.2"/>
</svg>
