<svg width="16" height="16" viewBox="0 0 16 16" fill="none" xmlns="http://www.w3.org/2000/svg">
<path d="M1.57778 5.33333V5.53333H1.77778H5.33333H5.53333V5.33333V1.77778V1.57778H5.33333H1.77778H1.57778V1.77778V5.33333ZM10.4667 5.33333V5.53333H10.6667H14.2222H14.4222V5.33333V1.77778V1.57778H14.2222H10.6667H10.4667V1.77778V5.33333ZM10.4667 14.2222V14.4222H10.6667H14.2222H14.4222V14.2222V10.6667V10.4667H14.2222H10.6667H10.4667V10.6667V14.2222ZM1.57778 14.2222V14.4222H1.77778H5.33333H5.53333V14.2222V10.6667V10.4667H5.33333H1.77778H1.57778V10.6667V14.2222ZM0.2 6.91111V0.2H6.91111V6.91111H0.2ZM0.2 15.8V9.08889H6.91111V15.8H0.2ZM9.08889 6.91111V0.2H15.8V6.91111H9.08889ZM9.08889 15.8V9.08889H15.8V15.8H9.08889Z" fill="#747474" stroke="white" stroke-width="0.4"/>
</svg>
