<svg width="16" height="14" viewBox="0 0 16 14" fill="none" xmlns="http://www.w3.org/2000/svg">
<path d="M5.75421 9.8457H5.09057C3.76625 9.8457 2.49662 9.33176 1.56087 8.41766C0.625209 7.50363 0.1 6.26445 0.1 4.97285C0.1 3.68126 0.625209 2.44207 1.56087 1.52805C2.49662 0.613943 3.76625 0.1 5.09057 0.1H10.9084H10.9084C11.7508 0.0998303 12.5795 0.307886 13.3172 0.704659C14.0549 1.10142 14.6776 1.67393 15.1275 2.36867C15.5774 3.0634 15.8399 3.85784 15.8909 4.67804C15.9376 5.43061 15.8048 6.18261 15.504 6.87516C15.2611 6.4237 14.9499 6.01041 14.5806 5.64937C14.6797 5.13537 14.6648 4.60632 14.5365 4.09808C14.4037 3.57192 14.1528 3.08137 13.8021 2.66193C13.4515 2.24249 13.0099 1.90467 12.5094 1.67279C12.009 1.4409 11.4621 1.32071 10.9084 1.32081C10.9084 1.32081 10.9084 1.32081 10.9084 1.32081H5.09057C4.10044 1.32081 3.1504 1.70503 2.44957 2.38965C1.74866 3.07435 1.35445 4.00351 1.35445 4.97285C1.35445 5.9422 1.74866 6.87136 2.44957 7.55605C3.1504 8.24068 4.10044 8.62489 5.09057 8.62489H5.75421C5.70392 9.03034 5.70392 9.44025 5.75421 9.8457ZM13.8595 11.1379L13.8127 11.207L13.8725 11.2654L15.6428 12.9955L14.7576 13.8602L12.9832 12.1276L12.9261 12.0718L12.8591 12.1151C12.326 12.4593 11.7073 12.6561 11.0686 12.6844C10.4299 12.7126 9.79538 12.5713 9.23255 12.2756C8.66973 11.9799 8.19975 11.5409 7.87231 11.0056C7.54489 10.4703 7.37215 9.85854 7.37225 9.23532C7.37238 8.69749 7.50125 8.16704 7.74868 7.68631C7.99611 7.20557 8.35531 6.78779 8.79776 6.46646C9.24023 6.14513 9.75365 5.9292 10.297 5.83609C10.8405 5.74298 11.3986 5.77529 11.9269 5.93042C12.4552 6.08554 12.9388 6.35914 13.3393 6.72917C13.7397 7.09919 14.0458 7.55538 14.2334 8.0612C14.4209 8.56701 14.4848 9.10857 14.4199 9.64267C14.355 10.1768 14.1632 10.6888 13.8595 11.1379ZM10.9084 7.00407C10.304 7.00407 9.72389 7.23859 9.29582 7.65676C8.86767 8.07501 8.6267 8.64277 8.6267 9.2353C8.6267 9.82782 8.86767 10.3956 9.29582 10.8138C9.72389 11.232 10.304 11.4665 10.9084 11.4665C11.5128 11.4665 12.0929 11.232 12.5209 10.8138C12.9491 10.3956 13.19 9.82782 13.19 9.2353C13.19 8.64277 12.9491 8.07501 12.5209 7.65676C12.0929 7.23859 11.5128 7.00407 10.9084 7.00407Z" fill="#747474" stroke="white" stroke-width="0.2"/>
</svg>
