<svg width="16" height="16" viewBox="0 0 16 16" fill="none" xmlns="http://www.w3.org/2000/svg">
<mask id="path-1-inside-1_317_373" fill="white">
<path d="M7.9993 5.33304C7.26145 5.33304 6.55381 5.61408 6.03206 6.11435C5.51032 6.61461 5.2172 7.29312 5.2172 8.0006C5.2172 8.70808 5.51032 9.38658 6.03206 9.88684C6.55381 10.3871 7.26145 10.6682 7.9993 10.6682C8.73716 10.6682 9.4448 10.3871 9.96655 9.88684C10.4883 9.38658 10.7814 8.70808 10.7814 8.0006C10.7814 7.29312 10.4883 6.61461 9.96655 6.11435C9.4448 5.61408 8.73716 5.33304 7.9993 5.33304ZM6.60825 8.0006C6.60825 7.64686 6.75481 7.3076 7.01568 7.05747C7.27656 6.80734 7.63037 6.66682 7.9993 6.66682C8.36823 6.66682 8.72205 6.80734 8.98292 7.05747C9.2438 7.3076 9.39035 7.64686 9.39035 8.0006C9.39035 8.35434 9.2438 8.69359 8.98292 8.94372C8.72205 9.19385 8.36823 9.33438 7.9993 9.33438C7.63037 9.33438 7.27656 9.19385 7.01568 8.94372C6.75481 8.69359 6.60825 8.35434 6.60825 8.0006ZM11.6411 3.19633C11.3846 3.24078 11.1202 3.18624 10.9055 3.04458C10.6908 2.90292 10.5432 2.68564 10.4948 2.44007L10.1332 0.551443C10.1161 0.45918 10.0705 0.373967 10.0023 0.306886C9.9341 0.239805 9.8464 0.193961 9.75064 0.175317C8.59534 -0.0584391 7.40188 -0.0584391 6.24658 0.175317C6.15082 0.193961 6.06312 0.239805 5.99489 0.306886C5.92667 0.373967 5.88107 0.45918 5.86404 0.551443L5.50376 2.44007C5.47745 2.57459 5.42105 2.70203 5.33844 2.81364C5.25582 2.92524 5.14896 3.01835 5.02521 3.08655C4.90146 3.15475 4.76377 3.19642 4.62161 3.2087C4.47945 3.22097 4.3362 3.20355 4.20174 3.15765L2.3113 2.5121C2.21946 2.48147 2.12031 2.47715 2.02595 2.49965C1.93159 2.52215 1.8461 2.5705 1.77992 2.63881C0.987951 3.47527 0.389663 4.46303 0.0244146 5.53711C-0.00607345 5.62591 -0.00805284 5.72144 0.0187328 5.81133C0.0455184 5.90122 0.099835 5.98132 0.174648 6.04128L1.70759 7.28302C1.74932 7.31592 1.78688 7.35194 1.82026 7.39106C1.90407 7.48515 1.96766 7.59419 2.00738 7.71192C2.04709 7.82965 2.06214 7.95375 2.05167 8.07708C2.0412 8.2004 2.00541 8.32053 1.94636 8.43055C1.88731 8.54057 1.80616 8.63832 1.70759 8.71817L0.174648 9.95992C0.099835 10.0199 0.0455184 10.1 0.0187328 10.1899C-0.00805284 10.2798 -0.00607345 10.3753 0.0244146 10.4641C0.390075 11.5383 0.988842 12.5261 1.78131 13.3624C1.84749 13.4307 1.93298 13.479 2.02734 13.5015C2.1217 13.524 2.22085 13.5197 2.31269 13.4891L4.20452 12.8435C4.33896 12.7972 4.48233 12.7794 4.62465 12.7914C4.76698 12.8035 4.90487 12.8451 5.02875 12.9134C5.15262 12.9817 5.25952 13.075 5.34203 13.1868C5.42454 13.2987 5.48067 13.4264 5.50654 13.5611L5.86543 15.4498C5.9016 15.6365 6.05323 15.7859 6.24797 15.8245C7.40372 16.0585 8.59767 16.0585 9.75342 15.8245C9.84874 15.8057 9.936 15.76 10.0039 15.6932C10.0719 15.6264 10.1174 15.5416 10.1346 15.4498L10.4962 13.5611C10.5225 13.4266 10.5789 13.2992 10.6616 13.1876C10.7442 13.076 10.851 12.9828 10.9748 12.9146C11.0985 12.8464 11.2362 12.8048 11.3784 12.7925C11.5206 12.7802 11.6638 12.7976 11.7983 12.8435L13.6887 13.4891C13.8765 13.5531 14.0865 13.5024 14.2201 13.3624C15.012 12.5259 15.6103 11.5382 15.9756 10.4641C16.0061 10.3753 16.0081 10.2798 15.9813 10.1899C15.9545 10.1 15.9002 10.0199 15.8254 9.95992L14.2924 8.71817C14.1833 8.63016 14.0955 8.52032 14.0354 8.39637C13.9752 8.27241 13.944 8.13733 13.944 8.0006C13.944 7.86386 13.9752 7.72878 14.0354 7.60483C14.0955 7.48087 14.1833 7.37104 14.2924 7.28302L15.8254 6.04128C15.9002 5.98132 15.9545 5.90122 15.9813 5.81133C16.0081 5.72144 16.0061 5.62591 15.9756 5.53711C15.6095 4.4628 15.0103 3.47502 14.2173 2.63881C14.1511 2.5705 14.0656 2.52215 13.9713 2.49965C13.8769 2.47715 13.7778 2.48147 13.6859 2.5121L11.7941 3.15765C11.7435 3.17381 11.6919 3.18717 11.6397 3.19766M2.43093 3.97125L3.73434 4.4154C4.05867 4.52611 4.40419 4.568 4.74704 4.53817C5.08989 4.50835 5.42191 4.40753 5.72016 4.24267C6.0184 4.07781 6.27578 3.85284 6.4745 3.5833C6.67322 3.31376 6.80856 3.00607 6.87116 2.68149L7.11738 1.38772C7.70157 1.31629 8.29286 1.31629 8.87706 1.38772L9.12466 2.68149C9.18683 3.00629 9.3219 3.31426 9.52051 3.58404C9.71913 3.85383 9.97654 4.07899 10.2749 4.24392C10.5733 4.40885 10.9055 4.50961 11.2485 4.53922C11.5915 4.56883 11.9372 4.52658 12.2615 4.4154L13.5635 3.96858C13.9196 4.41584 14.2117 4.89778 14.4399 5.4144L13.391 6.26402C13.1275 6.47736 12.9157 6.74329 12.7704 7.04322C12.6251 7.34316 12.5498 7.66989 12.5498 8.0006C12.5498 8.33131 12.6251 8.65803 12.7704 8.95797C12.9157 9.25791 13.1275 9.52383 13.391 9.73718L14.4413 10.5868C14.2136 11.1021 13.9191 11.5878 13.5649 12.0326L12.2615 11.5871C11.9372 11.4764 11.5916 11.4345 11.2488 11.4644C10.9059 11.4942 10.5739 11.595 10.2757 11.7599C9.97742 11.9247 9.72005 12.1497 9.52133 12.4192C9.3226 12.6888 9.18727 12.9965 9.12466 13.321L8.87706 14.6148C8.29286 14.6862 7.70157 14.6862 7.11738 14.6148L6.87116 13.321C6.809 12.9962 6.67393 12.6883 6.47532 12.4185C6.2767 12.1487 6.01929 11.9235 5.72091 11.7586C5.42253 11.5937 5.09033 11.4929 4.7473 11.4633C4.40428 11.4337 4.05865 11.4759 3.73434 11.5871L2.4351 12.0326C2.08087 11.5878 1.78644 11.1021 1.55874 10.5868L2.60759 9.73584C2.8709 9.52249 3.08249 9.25665 3.22764 8.95683C3.37278 8.65702 3.44797 8.33047 3.44797 7.99993C3.44797 7.66939 3.37278 7.34284 3.22764 7.04303C3.08249 6.74321 2.8709 6.47737 2.60759 6.26402L1.55735 5.4144C1.78734 4.89778 2.07946 4.41584 2.43371 3.96858"/>
</mask>
<path d="M7.9993 5.33304C7.26145 5.33304 6.55381 5.61408 6.03206 6.11435C5.51032 6.61461 5.2172 7.29312 5.2172 8.0006C5.2172 8.70808 5.51032 9.38658 6.03206 9.88684C6.55381 10.3871 7.26145 10.6682 7.9993 10.6682C8.73716 10.6682 9.4448 10.3871 9.96655 9.88684C10.4883 9.38658 10.7814 8.70808 10.7814 8.0006C10.7814 7.29312 10.4883 6.61461 9.96655 6.11435C9.4448 5.61408 8.73716 5.33304 7.9993 5.33304ZM6.60825 8.0006C6.60825 7.64686 6.75481 7.3076 7.01568 7.05747C7.27656 6.80734 7.63037 6.66682 7.9993 6.66682C8.36823 6.66682 8.72205 6.80734 8.98292 7.05747C9.2438 7.3076 9.39035 7.64686 9.39035 8.0006C9.39035 8.35434 9.2438 8.69359 8.98292 8.94372C8.72205 9.19385 8.36823 9.33438 7.9993 9.33438C7.63037 9.33438 7.27656 9.19385 7.01568 8.94372C6.75481 8.69359 6.60825 8.35434 6.60825 8.0006ZM11.6411 3.19633C11.3846 3.24078 11.1202 3.18624 10.9055 3.04458C10.6908 2.90292 10.5432 2.68564 10.4948 2.44007L10.1332 0.551443C10.1161 0.45918 10.0705 0.373967 10.0023 0.306886C9.9341 0.239805 9.8464 0.193961 9.75064 0.175317C8.59534 -0.0584391 7.40188 -0.0584391 6.24658 0.175317C6.15082 0.193961 6.06312 0.239805 5.99489 0.306886C5.92667 0.373967 5.88107 0.45918 5.86404 0.551443L5.50376 2.44007C5.47745 2.57459 5.42105 2.70203 5.33844 2.81364C5.25582 2.92524 5.14896 3.01835 5.02521 3.08655C4.90146 3.15475 4.76377 3.19642 4.62161 3.2087C4.47945 3.22097 4.3362 3.20355 4.20174 3.15765L2.3113 2.5121C2.21946 2.48147 2.12031 2.47715 2.02595 2.49965C1.93159 2.52215 1.8461 2.5705 1.77992 2.63881C0.987951 3.47527 0.389663 4.46303 0.0244146 5.53711C-0.00607345 5.62591 -0.00805284 5.72144 0.0187328 5.81133C0.0455184 5.90122 0.099835 5.98132 0.174648 6.04128L1.70759 7.28302C1.74932 7.31592 1.78688 7.35194 1.82026 7.39106C1.90407 7.48515 1.96766 7.59419 2.00738 7.71192C2.04709 7.82965 2.06214 7.95375 2.05167 8.07708C2.0412 8.2004 2.00541 8.32053 1.94636 8.43055C1.88731 8.54057 1.80616 8.63832 1.70759 8.71817L0.174648 9.95992C0.099835 10.0199 0.0455184 10.1 0.0187328 10.1899C-0.00805284 10.2798 -0.00607345 10.3753 0.0244146 10.4641C0.390075 11.5383 0.988842 12.5261 1.78131 13.3624C1.84749 13.4307 1.93298 13.479 2.02734 13.5015C2.1217 13.524 2.22085 13.5197 2.31269 13.4891L4.20452 12.8435C4.33896 12.7972 4.48233 12.7794 4.62465 12.7914C4.76698 12.8035 4.90487 12.8451 5.02875 12.9134C5.15262 12.9817 5.25952 13.075 5.34203 13.1868C5.42454 13.2987 5.48067 13.4264 5.50654 13.5611L5.86543 15.4498C5.9016 15.6365 6.05323 15.7859 6.24797 15.8245C7.40372 16.0585 8.59767 16.0585 9.75342 15.8245C9.84874 15.8057 9.936 15.76 10.0039 15.6932C10.0719 15.6264 10.1174 15.5416 10.1346 15.4498L10.4962 13.5611C10.5225 13.4266 10.5789 13.2992 10.6616 13.1876C10.7442 13.076 10.851 12.9828 10.9748 12.9146C11.0985 12.8464 11.2362 12.8048 11.3784 12.7925C11.5206 12.7802 11.6638 12.7976 11.7983 12.8435L13.6887 13.4891C13.8765 13.5531 14.0865 13.5024 14.2201 13.3624C15.012 12.5259 15.6103 11.5382 15.9756 10.4641C16.0061 10.3753 16.0081 10.2798 15.9813 10.1899C15.9545 10.1 15.9002 10.0199 15.8254 9.95992L14.2924 8.71817C14.1833 8.63016 14.0955 8.52032 14.0354 8.39637C13.9752 8.27241 13.944 8.13733 13.944 8.0006C13.944 7.86386 13.9752 7.72878 14.0354 7.60483C14.0955 7.48087 14.1833 7.37104 14.2924 7.28302L15.8254 6.04128C15.9002 5.98132 15.9545 5.90122 15.9813 5.81133C16.0081 5.72144 16.0061 5.62591 15.9756 5.53711C15.6095 4.4628 15.0103 3.47502 14.2173 2.63881C14.1511 2.5705 14.0656 2.52215 13.9713 2.49965C13.8769 2.47715 13.7778 2.48147 13.6859 2.5121L11.7941 3.15765C11.7435 3.17381 11.6919 3.18717 11.6397 3.19766M2.43093 3.97125L3.73434 4.4154C4.05867 4.52611 4.40419 4.568 4.74704 4.53817C5.08989 4.50835 5.42191 4.40753 5.72016 4.24267C6.0184 4.07781 6.27578 3.85284 6.4745 3.5833C6.67322 3.31376 6.80856 3.00607 6.87116 2.68149L7.11738 1.38772C7.70157 1.31629 8.29286 1.31629 8.87706 1.38772L9.12466 2.68149C9.18683 3.00629 9.3219 3.31426 9.52051 3.58404C9.71913 3.85383 9.97654 4.07899 10.2749 4.24392C10.5733 4.40885 10.9055 4.50961 11.2485 4.53922C11.5915 4.56883 11.9372 4.52658 12.2615 4.4154L13.5635 3.96858C13.9196 4.41584 14.2117 4.89778 14.4399 5.4144L13.391 6.26402C13.1275 6.47736 12.9157 6.74329 12.7704 7.04322C12.6251 7.34316 12.5498 7.66989 12.5498 8.0006C12.5498 8.33131 12.6251 8.65803 12.7704 8.95797C12.9157 9.25791 13.1275 9.52383 13.391 9.73718L14.4413 10.5868C14.2136 11.1021 13.9191 11.5878 13.5649 12.0326L12.2615 11.5871C11.9372 11.4764 11.5916 11.4345 11.2488 11.4644C10.9059 11.4942 10.5739 11.595 10.2757 11.7599C9.97742 11.9247 9.72005 12.1497 9.52133 12.4192C9.3226 12.6888 9.18727 12.9965 9.12466 13.321L8.87706 14.6148C8.29286 14.6862 7.70157 14.6862 7.11738 14.6148L6.87116 13.321C6.809 12.9962 6.67393 12.6883 6.47532 12.4185C6.2767 12.1487 6.01929 11.9235 5.72091 11.7586C5.42253 11.5937 5.09033 11.4929 4.7473 11.4633C4.40428 11.4337 4.05865 11.4759 3.73434 11.5871L2.4351 12.0326C2.08087 11.5878 1.78644 11.1021 1.55874 10.5868L2.60759 9.73584C2.8709 9.52249 3.08249 9.25665 3.22764 8.95683C3.37278 8.65702 3.44797 8.33047 3.44797 7.99993C3.44797 7.66939 3.37278 7.34284 3.22764 7.04303C3.08249 6.74321 2.8709 6.47737 2.60759 6.26402L1.55735 5.4144C1.78734 4.89778 2.07946 4.41584 2.43371 3.96858" fill="#404040"/>
<path d="M7.9993 5.33304V5.23304V5.33304ZM5.2172 8.0006H5.1172H5.2172ZM7.9993 6.66682V6.76682V6.66682ZM10.4948 2.44007L10.3966 2.45888L10.3967 2.45939L10.4948 2.44007ZM10.1332 0.551443L10.0348 0.569596L10.035 0.570251L10.1332 0.551443ZM9.75064 0.175317L9.7308 0.273334L9.73153 0.273474L9.75064 0.175317ZM6.24658 0.175317L6.26569 0.273477L6.26641 0.273331L6.24658 0.175317ZM5.86404 0.551443L5.96227 0.570182L5.96238 0.569596L5.86404 0.551443ZM5.50376 2.44007L5.6019 2.45927L5.60199 2.45881L5.50376 2.44007ZM4.20174 3.15765L4.16942 3.25228L4.16943 3.25228L4.20174 3.15765ZM2.3113 2.5121L2.34362 2.41746L2.34293 2.41723L2.3113 2.5121ZM1.77992 2.63881L1.7081 2.56922L1.7073 2.57005L1.77992 2.63881ZM0.0244146 5.53711L0.118996 5.56958L0.11909 5.5693L0.0244146 5.53711ZM0.174648 6.04128L0.237593 5.96357L0.237182 5.96324L0.174648 6.04128ZM1.70759 7.28302L1.64464 7.36073L1.64567 7.36155L1.70759 7.28302ZM1.82026 7.39106L1.74417 7.45599L1.74559 7.45757L1.82026 7.39106ZM2.00738 7.71192L1.91262 7.74388L2.00738 7.71192ZM1.70759 8.71817L1.64464 8.64046L1.64464 8.64046L1.70759 8.71817ZM0.174648 9.95992L0.237183 10.038L0.237592 10.0376L0.174648 9.95992ZM0.0244146 10.4641L0.119081 10.4319L0.118995 10.4316L0.0244146 10.4641ZM1.78131 13.3624L1.70872 13.4312L1.70949 13.432L1.78131 13.3624ZM2.31269 13.4891L2.34433 13.584L2.34499 13.5837L2.31269 13.4891ZM4.20452 12.8435L4.23681 12.9382L4.23713 12.9381L4.20452 12.8435ZM5.50654 13.5611L5.60478 13.5425L5.60475 13.5423L5.50654 13.5611ZM5.86543 15.4498L5.76719 15.4684L5.76726 15.4688L5.86543 15.4498ZM6.24797 15.8245L6.26781 15.7265L6.26745 15.7265L6.24797 15.8245ZM9.75342 15.8245L9.73407 15.7264L9.73358 15.7265L9.75342 15.8245ZM10.1346 15.4498L10.0363 15.4309L10.0363 15.4314L10.1346 15.4498ZM10.4962 13.5611L10.3981 13.5419L10.398 13.5423L10.4962 13.5611ZM11.7983 12.8435L11.8306 12.7489L11.8306 12.7489L11.7983 12.8435ZM13.6887 13.4891L13.6564 13.5837L13.6564 13.5837L13.6887 13.4891ZM14.2201 13.3624L14.2925 13.4314L14.2927 13.4311L14.2201 13.3624ZM15.9756 10.4641L15.881 10.4316L15.8809 10.4319L15.9756 10.4641ZM15.9813 10.1899L16.0771 10.1613L15.9813 10.1899ZM15.8254 9.95992L15.7624 10.0376L15.7628 10.038L15.8254 9.95992ZM14.2924 8.71817L14.3554 8.64046L14.3552 8.64033L14.2924 8.71817ZM13.944 8.0006H13.844H13.944ZM14.2924 7.28302L14.3552 7.36086L14.3554 7.36073L14.2924 7.28302ZM15.8254 6.04128L15.7628 5.96324L15.7624 5.96357L15.8254 6.04128ZM15.9813 5.81133L16.0771 5.83988L15.9813 5.81133ZM15.9756 5.53711L15.8809 5.56936L15.881 5.56958L15.9756 5.53711ZM14.2173 2.63881L14.2899 2.56999L14.2891 2.56922L14.2173 2.63881ZM13.6859 2.5121L13.6543 2.41723L13.6536 2.41746L13.6859 2.5121ZM11.7941 3.15765L11.8245 3.25293L11.8264 3.25229L11.7941 3.15765ZM3.73434 4.4154L3.76665 4.32076L3.7666 4.32074L3.73434 4.4154ZM6.87116 2.68149L6.96935 2.70043L6.9694 2.70018L6.87116 2.68149ZM7.11738 1.38772L7.10524 1.28846L7.03279 1.29732L7.01914 1.36903L7.11738 1.38772ZM8.87706 1.38772L8.97527 1.36892L8.96157 1.29731L8.88919 1.28846L8.87706 1.38772ZM9.12466 2.68149L9.02645 2.70028V2.70028L9.12466 2.68149ZM12.2615 4.4154L12.2939 4.50999L12.2939 4.50998L12.2615 4.4154ZM13.5635 3.96858L13.6417 3.9063L13.5978 3.8511L13.531 3.874L13.5635 3.96858ZM14.4399 5.4144L14.5028 5.4921L14.5622 5.44396L14.5313 5.374L14.4399 5.4144ZM13.391 6.26402L13.4539 6.34174L13.454 6.34172L13.391 6.26402ZM12.5498 8.0006H12.6498H12.5498ZM13.391 9.73718L13.3281 9.8149L13.3281 9.81492L13.391 9.73718ZM14.4413 10.5868L14.5327 10.6272L14.5637 10.5572L14.5042 10.509L14.4413 10.5868ZM13.5649 12.0326L13.5326 12.1272L13.5992 12.15L13.6431 12.0949L13.5649 12.0326ZM12.2615 11.5871L12.2938 11.4925L12.2938 11.4925L12.2615 11.5871ZM9.12466 13.321L9.02647 13.3021L9.02645 13.3022L9.12466 13.321ZM8.87706 14.6148L8.88919 14.7141L8.96157 14.7052L8.97527 14.6336L8.87706 14.6148ZM7.11738 14.6148L7.01914 14.6335L7.03279 14.7052L7.10524 14.7141L7.11738 14.6148ZM6.87116 13.321L6.9694 13.3023L6.96938 13.3022L6.87116 13.321ZM3.73434 11.5871L3.70191 11.4925L3.70191 11.4925L3.73434 11.5871ZM2.4351 12.0326L2.35688 12.0949L2.40082 12.1501L2.46754 12.1272L2.4351 12.0326ZM1.55874 10.5868L1.49574 10.5091L1.43638 10.5573L1.46727 10.6272L1.55874 10.5868ZM2.60759 9.73584L2.54464 9.65815L2.54459 9.65819L2.60759 9.73584ZM3.44797 7.99993H3.34797H3.44797ZM2.60759 6.26402L2.67055 6.18632L2.67049 6.18627L2.60759 6.26402ZM1.55735 5.4144L1.466 5.37373L1.43477 5.44386L1.49446 5.49215L1.55735 5.4144ZM7.9993 5.23304C7.23625 5.23304 6.50364 5.52364 5.96285 6.04217L6.10127 6.18653C6.60397 5.70453 7.28664 5.43304 7.9993 5.43304V5.23304ZM5.96285 6.04217C5.42192 6.56083 5.1172 7.26521 5.1172 8.0006H5.3172C5.3172 7.32103 5.59871 6.6684 6.10127 6.18653L5.96285 6.04217ZM5.1172 8.0006C5.1172 8.73599 5.42192 9.44036 5.96285 9.95902L6.10127 9.81466C5.59871 9.3328 5.3172 8.68017 5.3172 8.0006H5.1172ZM5.96285 9.95902C6.50364 10.4775 7.23625 10.7682 7.9993 10.7682V10.5682C7.28664 10.5682 6.60397 10.2967 6.10127 9.81466L5.96285 9.95902ZM7.9993 10.7682C8.76236 10.7682 9.49496 10.4775 10.0358 9.95902L9.89734 9.81466C9.39464 10.2967 8.71197 10.5682 7.9993 10.5682V10.7682ZM10.0358 9.95902C10.5767 9.44036 10.8814 8.73599 10.8814 8.0006H10.6814C10.6814 8.68017 10.3999 9.3328 9.89734 9.81466L10.0358 9.95902ZM10.8814 8.0006C10.8814 7.26521 10.5767 6.56083 10.0358 6.04217L9.89734 6.18653C10.3999 6.6684 10.6814 7.32103 10.6814 8.0006H10.8814ZM10.0358 6.04217C9.49496 5.52364 8.76236 5.23304 7.9993 5.23304V5.43304C8.71197 5.43304 9.39464 5.70453 9.89734 6.18653L10.0358 6.04217ZM6.70825 8.0006C6.70825 7.67477 6.84321 7.36139 7.08489 7.12965L6.94647 6.98529C6.66641 7.25382 6.50825 7.61895 6.50825 8.0006H6.70825ZM7.08489 7.12965C7.32672 6.89778 7.65557 6.76682 7.9993 6.76682V6.56682C7.60518 6.56682 7.22639 6.7169 6.94647 6.98529L7.08489 7.12965ZM7.9993 6.76682C8.34304 6.76682 8.67189 6.89778 8.91372 7.12965L9.05213 6.98529C8.77222 6.7169 8.39343 6.56682 7.9993 6.56682V6.76682ZM8.91372 7.12965C9.1554 7.36139 9.29035 7.67477 9.29035 8.0006H9.49035C9.49035 7.61895 9.33219 7.25382 9.05213 6.98529L8.91372 7.12965ZM9.29035 8.0006C9.29035 8.32643 9.1554 8.63981 8.91372 8.87154L9.05213 9.0159C9.33219 8.74737 9.49035 8.38225 9.49035 8.0006H9.29035ZM8.91372 8.87154C8.67189 9.10341 8.34304 9.23438 7.9993 9.23438V9.43437C8.39343 9.43437 8.77222 9.28429 9.05213 9.0159L8.91372 8.87154ZM7.9993 9.23438C7.65557 9.23438 7.32672 9.10341 7.08489 8.87154L6.94647 9.0159C7.22639 9.28429 7.60518 9.43437 7.9993 9.43437V9.23438ZM7.08489 8.87154C6.84321 8.63981 6.70825 8.32643 6.70825 8.0006H6.50825C6.50825 8.38225 6.66641 8.74737 6.94647 9.0159L7.08489 8.87154ZM11.624 3.0978C11.3923 3.13796 11.1537 3.08856 10.9606 2.96111L10.8504 3.12805C11.0867 3.28392 11.3769 3.34361 11.6582 3.29486L11.624 3.0978ZM10.9606 2.96111C10.7675 2.83375 10.636 2.63923 10.593 2.42076L10.3967 2.45939C10.4504 2.73205 10.614 2.9721 10.8504 3.12805L10.9606 2.96111ZM10.5931 2.42127L10.2314 0.532635L10.035 0.570251L10.3966 2.45888L10.5931 2.42127ZM10.2315 0.53329C10.2107 0.420408 10.155 0.316755 10.0724 0.23558L9.93221 0.378192C9.98611 0.431179 10.0216 0.497953 10.0348 0.569596L10.2315 0.53329ZM10.0724 0.23558C9.98992 0.154452 9.88438 0.0994764 9.76974 0.0771601L9.73153 0.273474C9.80843 0.288446 9.87828 0.325158 9.93221 0.378192L10.0724 0.23558ZM9.77047 0.0773035C8.60208 -0.159101 7.39513 -0.159101 6.22675 0.0773035L6.26641 0.273331C7.40862 0.042223 8.5886 0.042223 9.7308 0.273331L9.77047 0.0773035ZM6.22747 0.0771601C6.11284 0.0994764 6.00729 0.154452 5.92478 0.23558L6.065 0.378192C6.11894 0.325158 6.18879 0.288446 6.26569 0.273474L6.22747 0.0771601ZM5.92478 0.23558C5.84222 0.316755 5.78654 0.420408 5.7657 0.53329L5.96238 0.569596C5.97561 0.497952 6.01111 0.431179 6.065 0.378192L5.92478 0.23558ZM5.76581 0.532704L5.40553 2.42134L5.60199 2.45881L5.96227 0.570181L5.76581 0.532704ZM5.40562 2.42088C5.3822 2.54061 5.33195 2.65432 5.25806 2.75414L5.41881 2.87314C5.51015 2.74975 5.5727 2.60856 5.6019 2.45927L5.40562 2.42088ZM5.25806 2.75414C5.18416 2.85398 5.08832 2.93759 4.97694 2.99897L5.07348 3.17413C5.2096 3.09911 5.32748 2.99651 5.41881 2.87314L5.25806 2.75414ZM4.97694 2.99897C4.86555 3.06036 4.74139 3.09799 4.61301 3.10907L4.63021 3.30833C4.78614 3.29486 4.93737 3.24914 5.07348 3.17413L4.97694 2.99897ZM4.61301 3.10907C4.48462 3.12015 4.35531 3.10441 4.23405 3.06301L4.16943 3.25228C4.31709 3.3027 4.47427 3.32179 4.63021 3.30833L4.61301 3.10907ZM4.23405 3.06301L2.34362 2.41746L2.27899 2.60673L4.16942 3.25228L4.23405 3.06301ZM2.34293 2.41723C2.23336 2.3807 2.11522 2.37556 2.00275 2.40237L2.04914 2.59692C2.1254 2.57874 2.20556 2.58225 2.27967 2.60696L2.34293 2.41723ZM2.00275 2.40237C1.89027 2.4292 1.7878 2.48696 1.7081 2.56922L1.85174 2.70839C1.9044 2.65404 1.9729 2.6151 2.04914 2.59692L2.00275 2.40237ZM1.7073 2.57005C0.905593 3.4168 0.299696 4.41699 -0.070261 5.50491L0.11909 5.5693C0.47963 4.50907 1.07031 3.53373 1.85254 2.70756L1.7073 2.57005ZM-0.070166 5.50463C-0.107416 5.61313 -0.109848 5.73 -0.0771029 5.83988L0.114568 5.78277C0.0937419 5.71288 0.0952692 5.63868 0.118995 5.56958L-0.070166 5.50463ZM-0.0771029 5.83988C-0.0443723 5.94972 0.0218008 6.04694 0.112114 6.11931L0.237182 5.96324C0.177869 5.91571 0.135409 5.85271 0.114568 5.78277L-0.0771029 5.83988ZM0.111704 6.11898L1.64464 7.36073L1.77053 7.20532L0.237592 5.96357L0.111704 6.11898ZM1.64567 7.36155C1.68242 7.39052 1.71521 7.422 1.74419 7.45597L1.89633 7.32615C1.85854 7.28187 1.81621 7.24132 1.7695 7.20449L1.64567 7.36155ZM1.74559 7.45757C1.82058 7.54176 1.87727 7.63909 1.91262 7.74388L2.10213 7.67996C2.05805 7.54929 1.98756 7.42854 1.89493 7.32454L1.74559 7.45757ZM1.91262 7.74388C1.94797 7.84867 1.96134 7.95901 1.95203 8.06861L2.15131 8.08554C2.16295 7.94849 2.14621 7.81063 2.10213 7.67996L1.91262 7.74388ZM1.95203 8.06861C1.94273 8.17822 1.91091 8.28515 1.85825 8.38326L2.03447 8.47784C2.09992 8.35591 2.13968 8.22258 2.15131 8.08554L1.95203 8.06861ZM1.85825 8.38326C1.80559 8.48138 1.73306 8.56884 1.64464 8.64046L1.77053 8.79587C1.87927 8.7078 1.96904 8.59976 2.03447 8.47784L1.85825 8.38326ZM1.64464 8.64046L0.111704 9.88221L0.237592 10.0376L1.77053 8.79587L1.64464 8.64046ZM0.112114 9.88188C0.021801 9.95425 -0.0443722 10.0515 -0.0771029 10.1613L0.114568 10.2184C0.135409 10.1485 0.177869 10.0855 0.237182 10.038L0.112114 9.88188ZM-0.0771029 10.1613C-0.109848 10.2712 -0.107416 10.3881 -0.070166 10.4966L0.118995 10.4316C0.0952692 10.3625 0.0937419 10.2883 0.114568 10.2184L-0.0771029 10.1613ZM-0.070251 10.4963C0.300123 11.5844 0.906505 12.5845 1.70872 13.4312L1.8539 13.2936C1.07118 12.4676 0.480027 11.4922 0.11908 10.4319L-0.070251 10.4963ZM1.70949 13.432C1.78919 13.5142 1.89166 13.572 2.00414 13.5988L2.05053 13.4043C1.97429 13.3861 1.90579 13.3472 1.85313 13.2928L1.70949 13.432ZM2.00414 13.5988C2.11661 13.6256 2.23475 13.6205 2.34433 13.584L2.28106 13.3942C2.20695 13.4189 2.12679 13.4225 2.05053 13.4043L2.00414 13.5988ZM2.34499 13.5837L4.23681 12.9382L4.17222 12.7489L2.2804 13.3945L2.34499 13.5837ZM4.23713 12.9381C4.35834 12.8963 4.48771 12.8802 4.61621 12.8911L4.6331 12.6918C4.47694 12.6786 4.31959 12.6981 4.17191 12.749L4.23713 12.9381ZM4.61621 12.8911C4.74471 12.902 4.86901 12.9395 4.98048 13.001L5.07701 12.8258C4.94073 12.7507 4.78926 12.705 4.6331 12.6918L4.61621 12.8911ZM4.98048 13.001C5.09194 13.0624 5.18778 13.1461 5.26156 13.2462L5.4225 13.1274C5.33127 13.0038 5.21331 12.9009 5.07701 12.8258L4.98048 13.001ZM5.26156 13.2462C5.33532 13.3462 5.38532 13.4601 5.40834 13.58L5.60475 13.5423C5.57603 13.3927 5.51375 13.2511 5.4225 13.1274L5.26156 13.2462ZM5.4083 13.5798L5.76719 15.4684L5.96368 15.4311L5.60478 13.5425L5.4083 13.5798ZM5.76726 15.4688C5.81151 15.6972 5.99576 15.8764 6.22849 15.9226L6.26745 15.7265C6.11069 15.6953 5.99169 15.5757 5.96361 15.4307L5.76726 15.4688ZM6.22813 15.9226C7.39697 16.1591 8.60442 16.1591 9.77326 15.9226L9.73358 15.7265C8.59093 15.9578 7.41046 15.9578 6.26781 15.7265L6.22813 15.9226ZM9.77276 15.9227C9.88686 15.9002 9.99188 15.8453 10.0741 15.7645L9.93382 15.6219C9.88011 15.6747 9.81062 15.7113 9.73407 15.7264L9.77276 15.9227ZM10.0741 15.7645C10.1563 15.6837 10.2118 15.5805 10.2329 15.4681L10.0363 15.4314C10.0229 15.5027 9.98749 15.5691 9.93382 15.6219L10.0741 15.7645ZM10.2328 15.4686L10.5945 13.5799L10.398 13.5423L10.0364 15.4309L10.2328 15.4686ZM10.5944 13.5803C10.6178 13.4606 10.668 13.3469 10.7419 13.2471L10.5812 13.1281C10.4899 13.2514 10.4273 13.3926 10.3981 13.5419L10.5944 13.5803ZM10.7419 13.2471C10.8158 13.1472 10.9117 13.0636 11.0231 13.0022L10.9265 12.8271C10.7904 12.9021 10.6725 13.0047 10.5812 13.1281L10.7419 13.2471ZM11.0231 13.0022C11.1344 12.9408 11.2586 12.9032 11.387 12.8921L11.3698 12.6929C11.2139 12.7063 11.0626 12.752 10.9265 12.8271L11.0231 13.0022ZM11.387 12.8921C11.5154 12.881 11.6447 12.8968 11.766 12.9382L11.8306 12.7489C11.6829 12.6985 11.5257 12.6794 11.3698 12.6929L11.387 12.8921ZM11.7659 12.9382L13.6564 13.5837L13.721 13.3945L11.8306 12.7489L11.7659 12.9382ZM13.6564 13.5837C13.8803 13.6601 14.1314 13.6003 14.2925 13.4314L14.1477 13.2934C14.0417 13.4046 13.8727 13.4462 13.721 13.3944L13.6564 13.5837ZM14.2927 13.4311C15.0944 12.5844 15.7003 11.5842 16.0703 10.4963L15.8809 10.4319C15.5204 11.4921 14.9297 12.4675 14.1475 13.2936L14.2927 13.4311ZM16.0702 10.4966C16.1074 10.3881 16.1098 10.2712 16.0771 10.1613L15.8854 10.2184C15.9063 10.2883 15.9047 10.3625 15.881 10.4316L16.0702 10.4966ZM16.0771 10.1613C16.0444 10.0515 15.9782 9.95425 15.8879 9.88188L15.7628 10.038C15.8221 10.0855 15.8646 10.1485 15.8854 10.2184L16.0771 10.1613ZM15.8883 9.88221L14.3554 8.64046L14.2295 8.79587L15.7624 10.0376L15.8883 9.88221ZM14.3552 8.64033C14.2573 8.56139 14.1789 8.46316 14.1253 8.35268L13.9454 8.44005C14.0121 8.57749 14.1092 8.69892 14.2296 8.79601L14.3552 8.64033ZM14.1253 8.35268C14.0717 8.24223 14.044 8.12208 14.044 8.0006H13.844C13.844 8.15259 13.8786 8.30259 13.9454 8.44005L14.1253 8.35268ZM14.044 8.0006C14.044 7.87912 14.0717 7.75896 14.1253 7.64851L13.9454 7.56115C13.8786 7.69861 13.844 7.84861 13.844 8.0006H14.044ZM14.1253 7.64851C14.1789 7.53804 14.2573 7.4398 14.3552 7.36086L14.2296 7.20518C14.1092 7.30228 14.0121 7.4237 13.9454 7.56115L14.1253 7.64851ZM14.3554 7.36073L15.8883 6.11898L15.7624 5.96357L14.2295 7.20532L14.3554 7.36073ZM15.8879 6.11931C15.9782 6.04694 16.0444 5.94972 16.0771 5.83988L15.8854 5.78277C15.8646 5.85271 15.8221 5.91571 15.7628 5.96324L15.8879 6.11931ZM16.0771 5.83988C16.1098 5.73 16.1074 5.61313 16.0702 5.50463L15.881 5.56958C15.9047 5.63868 15.9063 5.71288 15.8854 5.78277L16.0771 5.83988ZM16.0702 5.50485C15.6994 4.4167 15.0926 3.4165 14.2899 2.57L14.1447 2.70762C14.9279 3.53354 15.5196 4.5089 15.8809 5.56936L16.0702 5.50485ZM14.2891 2.56922C14.2094 2.48696 14.1069 2.4292 13.9945 2.40237L13.9481 2.59692C14.0243 2.6151 14.0928 2.65404 14.1455 2.70839L14.2891 2.56922ZM13.9945 2.40237C13.882 2.37556 13.7639 2.3807 13.6543 2.41723L13.7176 2.60696C13.7917 2.58225 13.8718 2.57874 13.9481 2.59692L13.9945 2.40237ZM13.6536 2.41746L11.7618 3.063L11.8264 3.25229L13.7182 2.60674L13.6536 2.41746ZM11.7637 3.06239C11.7166 3.07742 11.6686 3.08986 11.62 3.09962L11.6594 3.2957C11.7152 3.28449 11.7704 3.2702 11.8245 3.25291L11.7637 3.06239ZM2.39868 4.06591L3.70209 4.51005L3.7666 4.32074L2.46319 3.8766L2.39868 4.06591ZM3.70204 4.51004C4.03958 4.62526 4.39906 4.66882 4.7557 4.6378L4.73837 4.43855C4.40931 4.46717 4.07775 4.42696 3.76665 4.32076L3.70204 4.51004ZM4.7557 4.6378C5.11235 4.60677 5.45792 4.50188 5.76853 4.33018L5.67178 4.15515C5.3859 4.31317 5.06743 4.40993 4.73837 4.43855L4.7557 4.6378ZM5.76853 4.33018C6.07916 4.15848 6.34756 3.92398 6.55499 3.64264L6.39401 3.52395C6.20399 3.78169 5.95765 3.99713 5.67178 4.15515L5.76853 4.33018ZM6.55499 3.64264C6.76243 3.36128 6.90389 3.03982 6.96935 2.70043L6.77297 2.66255C6.71323 2.97232 6.58402 3.26624 6.39401 3.52395L6.55499 3.64264ZM6.9694 2.70018L7.21562 1.40642L7.01914 1.36903L6.77293 2.66279L6.9694 2.70018ZM7.12952 1.48698C7.70565 1.41654 8.28879 1.41654 8.86492 1.48698L8.88919 1.28846C8.29694 1.21604 7.6975 1.21604 7.10524 1.28846L7.12952 1.48698ZM8.77884 1.40652L9.02645 2.70028L9.22288 2.66269L8.97527 1.36892L8.77884 1.40652ZM9.02645 2.70028C9.09145 3.03993 9.23264 3.3617 9.43998 3.64333L9.60104 3.52476C9.41115 3.26682 9.2822 2.97265 9.22288 2.66269L9.02645 2.70028ZM9.43998 3.64333C9.6473 3.92495 9.91576 4.15965 10.2265 4.33144L10.3233 4.1564C10.0373 3.99832 9.79095 3.78271 9.60104 3.52476L9.43998 3.64333ZM10.2265 4.33144C10.5373 4.50322 10.8831 4.60805 11.2399 4.63885L11.2571 4.43959C10.9279 4.41118 10.6093 4.31448 10.3233 4.1564L10.2265 4.33144ZM11.2399 4.63885C11.5968 4.66965 11.9564 4.62571 12.2939 4.50999L12.2291 4.3208C11.918 4.42745 11.5863 4.46801 11.2571 4.43959L11.2399 4.63885ZM12.2939 4.50998L13.596 4.06317L13.531 3.874L12.229 4.32081L12.2939 4.50998ZM13.4853 4.03087C13.8361 4.47152 14.1238 4.94611 14.3484 5.4548L14.5313 5.374C14.2997 4.84946 14.0031 4.36017 13.6417 3.9063L13.4853 4.03087ZM14.3769 5.33669L13.3281 6.18631L13.454 6.34172L14.5028 5.4921L14.3769 5.33669ZM13.3281 6.18629C13.0533 6.40872 12.8322 6.68623 12.6804 6.99963L12.8604 7.08682C12.9991 6.80034 13.2016 6.546 13.4539 6.34174L13.3281 6.18629ZM12.6804 6.99963C12.5286 7.31305 12.4498 7.65466 12.4498 8.0006H12.6498C12.6498 7.68511 12.7216 7.37327 12.8604 7.08682L12.6804 6.99963ZM12.4498 8.0006C12.4498 8.34653 12.5286 8.68815 12.6804 9.00156L12.8604 8.91438C12.7216 8.62792 12.6498 8.31608 12.6498 8.0006H12.4498ZM12.6804 9.00156C12.8322 9.31497 13.0533 9.59247 13.3281 9.8149L13.4539 9.65945C13.2016 9.45519 12.9991 9.20085 12.8604 8.91438L12.6804 9.00156ZM13.3281 9.81492L14.3784 10.6645L14.5042 10.509L13.4539 9.65943L13.3281 9.81492ZM14.3498 10.5464C14.1256 11.0538 13.8356 11.5322 13.4867 11.9703L13.6431 12.0949C14.0026 11.6435 14.3015 11.1504 14.5327 10.6272L14.3498 10.5464ZM13.5972 11.938L12.2938 11.4925L12.2291 11.6818L13.5326 12.1272L13.5972 11.938ZM12.2938 11.4925C11.9562 11.3773 11.5968 11.3337 11.2401 11.3647L11.2575 11.564C11.5865 11.5354 11.9181 11.5756 12.2292 11.6818L12.2938 11.4925ZM11.2401 11.3647C10.8835 11.3958 10.5379 11.5006 10.2273 11.6723L10.324 11.8474C10.6099 11.6894 10.9284 11.5926 11.2575 11.564L11.2401 11.3647ZM10.2273 11.6723C9.91667 11.844 9.64826 12.0785 9.44084 12.3599L9.60181 12.4786C9.79183 12.2208 10.0382 12.0054 10.324 11.8474L10.2273 11.6723ZM9.44084 12.3599C9.2334 12.6412 9.09193 12.9627 9.02647 13.3021L9.22285 13.34C9.2826 13.0302 9.41181 12.7363 9.60181 12.4786L9.44084 12.3599ZM9.02645 13.3022L8.77884 14.596L8.97527 14.6336L9.22288 13.3398L9.02645 13.3022ZM8.86492 14.5155C8.28879 14.586 7.70565 14.586 7.12952 14.5155L7.10524 14.7141C7.6975 14.7865 8.29694 14.7865 8.88919 14.7141L8.86492 14.5155ZM7.21562 14.5961L6.9694 13.3023L6.77293 13.3397L7.01914 14.6335L7.21562 14.5961ZM6.96938 13.3022C6.90438 12.9626 6.76318 12.6408 6.55585 12.3592L6.39478 12.4778C6.58468 12.7357 6.71362 13.0299 6.77295 13.3398L6.96938 13.3022ZM6.55585 12.3592C6.34852 12.0776 6.08006 11.8429 5.76929 11.6711L5.67253 11.8461C5.95851 12.0042 6.20488 12.2198 6.39478 12.4778L6.55585 12.3592ZM5.76929 11.6711C5.45852 11.4993 5.11274 11.3945 4.7559 11.3637L4.7387 11.5629C5.06791 11.5914 5.38654 11.688 5.67253 11.8461L5.76929 11.6711ZM4.7559 11.3637C4.39906 11.3329 4.03945 11.3768 3.70191 11.4925L3.76678 11.6817C4.07784 11.5751 4.4095 11.5345 4.7387 11.5629L4.7559 11.3637ZM3.70191 11.4925L2.40267 11.938L2.46754 12.1272L3.76678 11.6817L3.70191 11.4925ZM2.51333 11.9703C2.16438 11.5322 1.87441 11.0538 1.65021 10.5464L1.46727 10.6272C1.69846 11.1504 1.99737 11.6435 2.35688 12.0949L2.51333 11.9703ZM1.62175 10.6644L2.6706 9.8135L2.54459 9.65819L1.49574 10.5091L1.62175 10.6644ZM2.67055 9.81354C2.94506 9.59111 3.16599 9.31368 3.31764 9.00041L3.13763 8.91326C2.999 9.19961 2.79673 9.45388 2.54464 9.65815L2.67055 9.81354ZM3.31764 9.00041C3.46931 8.68712 3.54797 8.34568 3.54797 7.99993H3.34797C3.34797 8.31525 3.27625 8.62692 3.13763 8.91326L3.31764 9.00041ZM3.54797 7.99993C3.54797 7.65418 3.46931 7.31274 3.31764 6.99945L3.13763 7.0866C3.27625 7.37293 3.34797 7.68461 3.34797 7.99993H3.54797ZM3.31764 6.99945C3.16599 6.68618 2.94506 6.40875 2.67055 6.18632L2.54464 6.34171C2.79673 6.54598 2.999 6.80025 3.13763 7.0866L3.31764 6.99945ZM2.67049 6.18627L1.62025 5.33665L1.49446 5.49215L2.5447 6.34176L2.67049 6.18627ZM1.64871 5.45507C1.87526 4.94618 2.163 4.47142 2.5121 4.03067L2.35532 3.9065C1.99591 4.36026 1.69942 4.84939 1.466 5.37373L1.64871 5.45507Z" fill="white" mask="url(#path-1-inside-1_317_373)"/>
</svg>
